<mxfile host="app.diagrams.net" modified="2022-03-02T05:22:10.636Z" agent="5.0 (Macintosh; Intel Mac OS X 10_15_7) AppleWebKit/537.36 (KHTML, like Gecko) Chrome/98.0.4758.109 Safari/537.36" etag="2Ud6ARXPitjZckiArdpg" version="16.6.4" type="github">
  <diagram id="0EnMflYO1tRVR7FRJgbL" name="Page-1">
    <mxGraphModel dx="1040" dy="725" grid="1" gridSize="10" guides="1" tooltips="1" connect="1" arrows="1" fold="1" page="1" pageScale="1" pageWidth="827" pageHeight="1169" math="0" shadow="0">
      <root>
        <mxCell id="0" />
        <mxCell id="1" parent="0" />
        <mxCell id="1NpBpwTsDGu8WmC93cPE-1" value="" style="whiteSpace=wrap;html=1;aspect=fixed;" vertex="1" parent="1">
          <mxGeometry x="100" y="113.75" width="172.5" height="172.5" as="geometry" />
        </mxCell>
        <mxCell id="1NpBpwTsDGu8WmC93cPE-8" value="" style="whiteSpace=wrap;html=1;aspect=fixed;" vertex="1" parent="1">
          <mxGeometry x="107.5" y="125" width="75" height="75" as="geometry" />
        </mxCell>
        <mxCell id="1NpBpwTsDGu8WmC93cPE-2" value="spirit" style="ellipse;whiteSpace=wrap;html=1;aspect=fixed;" vertex="1" parent="1">
          <mxGeometry x="120" y="130" width="50" height="50" as="geometry" />
        </mxCell>
        <mxCell id="1NpBpwTsDGu8WmC93cPE-4" value="label" style="rounded=1;whiteSpace=wrap;html=1;" vertex="1" parent="1">
          <mxGeometry x="115" y="170" width="60" height="20" as="geometry" />
        </mxCell>
        <mxCell id="1NpBpwTsDGu8WmC93cPE-6" value="label" style="rounded=1;whiteSpace=wrap;html=1;" vertex="1" parent="1">
          <mxGeometry x="118" y="214" width="125" height="20" as="geometry" />
        </mxCell>
        <mxCell id="1NpBpwTsDGu8WmC93cPE-7" value="label" style="rounded=1;whiteSpace=wrap;html=1;" vertex="1" parent="1">
          <mxGeometry x="118" y="248" width="125" height="20" as="geometry" />
        </mxCell>
        <mxCell id="1NpBpwTsDGu8WmC93cPE-10" value="" style="whiteSpace=wrap;html=1;aspect=fixed;" vertex="1" parent="1">
          <mxGeometry x="188" y="125" width="75" height="75" as="geometry" />
        </mxCell>
        <mxCell id="1NpBpwTsDGu8WmC93cPE-11" value="spirit" style="ellipse;whiteSpace=wrap;html=1;aspect=fixed;" vertex="1" parent="1">
          <mxGeometry x="200.5" y="130" width="50" height="50" as="geometry" />
        </mxCell>
        <mxCell id="1NpBpwTsDGu8WmC93cPE-12" value="label" style="rounded=1;whiteSpace=wrap;html=1;" vertex="1" parent="1">
          <mxGeometry x="195.5" y="170" width="60" height="20" as="geometry" />
        </mxCell>
        <mxCell id="1NpBpwTsDGu8WmC93cPE-13" value="Node" style="text;html=1;align=center;verticalAlign=middle;resizable=0;points=[];autosize=1;strokeColor=none;fillColor=none;" vertex="1" parent="1">
          <mxGeometry x="125" y="190" width="40" height="20" as="geometry" />
        </mxCell>
        <mxCell id="1NpBpwTsDGu8WmC93cPE-14" value="Node" style="text;html=1;align=center;verticalAlign=middle;resizable=0;points=[];autosize=1;strokeColor=none;fillColor=none;" vertex="1" parent="1">
          <mxGeometry x="160.5" y="280" width="40" height="20" as="geometry" />
        </mxCell>
        <mxCell id="1NpBpwTsDGu8WmC93cPE-15" value="Node" style="text;html=1;align=center;verticalAlign=middle;resizable=0;points=[];autosize=1;strokeColor=none;fillColor=none;" vertex="1" parent="1">
          <mxGeometry x="205.5" y="190" width="40" height="20" as="geometry" />
        </mxCell>
      </root>
    </mxGraphModel>
  </diagram>
</mxfile>
